<svg width="225" height="244" viewBox="0 0 225 244" fill="none" xmlns="http://www.w3.org/2000/svg">
<rect x="125" y="144" width="100" height="100" transform="rotate(-180 125 144)" fill="#2C6269"/>
<path fill-rule="evenodd" clip-rule="evenodd" d="M125 244C180.228 244 225 199.228 225 144C225 88.7715 180.228 44 125 44C69.7715 44 25 88.7715 25 144C25 199.228 69.7715 244 125 244ZM125 177C143.225 177 158 162.225 158 144C158 125.775 143.225 111 125 111C106.775 111 92 125.775 92 144C92 162.225 106.775 177 125 177Z" fill="#014E56"/>
<path fill-rule="evenodd" clip-rule="evenodd" d="M125 144H25V148H125V144ZM125 152H25V156H125V152ZM25 160H125V164H25V160ZM125 168H25V172H125V168ZM25 176H125V180H25V176ZM125 184H25V188H125V184Z" fill="#79C8C7"/>
<path fill-rule="evenodd" clip-rule="evenodd" d="M25 0H29V4H25V0ZM36 0H32V4H36V0ZM36 8H32V12H36V8ZM32 16H36V20H32V16ZM36 24H32V28H36V24ZM32 32H36V36H32V32ZM36 40H32V44H36V40ZM39 0H43V4H39V0ZM39 8H43V12H39V8ZM43 16H39V20H43V16ZM39 24H43V28H39V24ZM43 32H39V36H43V32ZM39 40H43V44H39V40ZM25 8H29V12H25V8ZM46 0H50V4H46V0ZM46 8H50V12H46V8ZM50 16H46V20H50V16ZM46 24H50V28H46V24ZM50 32H46V36H50V32ZM46 40H50V44H46V40ZM25 16H29V20H25V16ZM53 0H57V4H53V0ZM53 8H57V12H53V8ZM57 16H53V20H57V16ZM53 24H57V28H53V24ZM57 32H53V36H57V32ZM53 40H57V44H53V40ZM25 24H29V28H25V24ZM60 0H64V4H60V0ZM60 8H64V12H60V8ZM64 16H60V20H64V16ZM60 24H64V28H60V24ZM64 32H60V36H64V32ZM60 40H64V44H60V40ZM25 32H29V36H25V32ZM67 0H71V4H67V0ZM67 8H71V12H67V8ZM71 16H67V20H71V16ZM67 24H71V28H67V24ZM71 32H67V36H71V32ZM67 40H71V44H67V40ZM25 40H29V44H25V40ZM74 0H78V4H74V0ZM74 8H78V12H74V8ZM78 16H74V20H78V16ZM74 24H78V28H74V24ZM78 32H74V36H78V32ZM74 40H78V44H74V40Z" fill="#79C8C7"/>
</svg>
